<svg preserveAspectRatio="none" width="100%" height="100%" overflow="visible" style="display: block;" viewBox="0 0 16.6667 16.6667" fill="none" xmlns="http://www.w3.org/2000/svg">
<g id="vector">
<path d="M15.833 10C16.2931 10 16.6668 10.3729 16.667 10.833V14.167C16.6669 14.8299 16.4033 15.4658 15.9346 15.9346C15.4658 16.4033 14.8299 16.6669 14.167 16.667H2.5C1.83704 16.667 1.20125 16.4033 0.732422 15.9346C0.263658 15.4658 8.62827e-05 14.8299 0 14.167V10.833C0.000175694 10.373 0.373029 10.0002 0.833008 10C1.29314 10 1.66682 10.3729 1.66699 10.833V14.167C1.66708 14.3879 1.75493 14.5997 1.91113 14.7559C2.0674 14.912 2.27906 15 2.5 15H14.167C14.3879 14.9999 14.5997 14.9121 14.7559 14.7559C14.9121 14.5997 14.9999 14.3879 15 14.167V10.833C15.0002 10.373 15.373 10.0002 15.833 10ZM8.33301 0C8.79314 0 9.16682 0.37292 9.16699 0.833008V8.82129L11.9111 6.07715C12.2365 5.75215 12.7635 5.75215 13.0889 6.07715C13.4143 6.40259 13.4143 6.93042 13.0889 7.25586L8.92285 11.4229C8.90295 11.4428 8.8812 11.4607 8.85938 11.4785C8.82909 11.5033 8.79733 11.5251 8.76465 11.5449C8.72703 11.5678 8.6877 11.5877 8.64648 11.6045C8.60125 11.6228 8.55503 11.6374 8.50781 11.6475C8.50488 11.6481 8.50197 11.6488 8.49902 11.6494C8.38914 11.6716 8.27586 11.6718 8.16602 11.6494C8.16338 11.6489 8.16083 11.648 8.1582 11.6475C8.11071 11.6373 8.06403 11.623 8.01855 11.6045C8.00136 11.5975 7.98437 11.5902 7.96777 11.582C7.95824 11.5774 7.94884 11.5724 7.93945 11.5674C7.86745 11.5287 7.80148 11.4802 7.74414 11.4229L3.57715 7.25586C3.25187 6.93041 3.25177 6.40253 3.57715 6.07715C3.90253 5.75177 4.43041 5.75187 4.75586 6.07715L7.5 8.82129V0.833008C7.50018 0.373029 7.87303 0.000175726 8.33301 0Z" fill="var(--fill-0, #FAFAFA)"/>
<path d="M15.833 10C16.2931 10 16.6668 10.3729 16.667 10.833V14.167C16.6669 14.8299 16.4033 15.4658 15.9346 15.9346C15.4658 16.4033 14.8299 16.6669 14.167 16.667H2.5C1.83704 16.667 1.20125 16.4033 0.732422 15.9346C0.263658 15.4658 8.62827e-05 14.8299 0 14.167V10.833C0.000175694 10.373 0.373029 10.0002 0.833008 10C1.29314 10 1.66682 10.3729 1.66699 10.833V14.167C1.66708 14.3879 1.75493 14.5997 1.91113 14.7559C2.0674 14.912 2.27906 15 2.5 15H14.167C14.3879 14.9999 14.5997 14.9121 14.7559 14.7559C14.9121 14.5997 14.9999 14.3879 15 14.167V10.833C15.0002 10.373 15.373 10.0002 15.833 10ZM8.33301 0C8.79314 0 9.16682 0.37292 9.16699 0.833008V8.82129L11.9111 6.07715C12.2365 5.75215 12.7635 5.75215 13.0889 6.07715C13.4143 6.40259 13.4143 6.93042 13.0889 7.25586L8.92285 11.4229C8.90295 11.4428 8.8812 11.4607 8.85938 11.4785C8.82909 11.5033 8.79733 11.5251 8.76465 11.5449C8.72703 11.5678 8.6877 11.5877 8.64648 11.6045C8.60125 11.6228 8.55503 11.6374 8.50781 11.6475C8.50488 11.6481 8.50197 11.6488 8.49902 11.6494C8.38914 11.6716 8.27586 11.6718 8.16602 11.6494C8.16338 11.6489 8.16083 11.648 8.1582 11.6475C8.11071 11.6373 8.06403 11.623 8.01855 11.6045C8.00136 11.5975 7.98437 11.5902 7.96777 11.582C7.95824 11.5774 7.94884 11.5724 7.93945 11.5674C7.86745 11.5287 7.80148 11.4802 7.74414 11.4229L3.57715 7.25586C3.25187 6.93041 3.25177 6.40253 3.57715 6.07715C3.90253 5.75177 4.43041 5.75187 4.75586 6.07715L7.5 8.82129V0.833008C7.50018 0.373029 7.87303 0.000175726 8.33301 0Z" stroke="var(--stroke-0, #ED3237)"/>
</g>
</svg>
