<svg preserveAspectRatio="none" width="100%" height="100%" overflow="visible" style="display: block;" viewBox="0 0 15 18.3333" fill="none" xmlns="http://www.w3.org/2000/svg">
<g id="vector">
<path d="M7.5 3.33301C11.642 3.33301 14.9998 6.69102 15 10.833C15 14.9751 11.6421 18.333 7.5 18.333C3.35786 18.333 0 14.9751 0 10.833C0.000176202 6.69102 3.35797 3.33301 7.5 3.33301ZM7.5 5C4.27845 5 1.66717 7.6115 1.66699 10.833C1.66699 14.0547 4.27834 16.667 7.5 16.667C10.7217 16.667 13.333 14.0547 13.333 10.833C13.3328 7.6115 10.7216 5 7.5 5ZM9.41113 7.74414C9.73653 7.41892 10.2635 7.41892 10.5889 7.74414C10.9143 8.06958 10.9143 8.59741 10.5889 8.92285L8.08887 11.4229C7.76351 11.7479 7.23649 11.7479 6.91113 11.4229C6.5857 11.0974 6.5857 10.5696 6.91113 10.2441L9.41113 7.74414ZM9.16699 0C9.62697 0.000175952 9.99982 0.373029 10 0.833008C10 1.29314 9.62708 1.66682 9.16699 1.66699H5.83301C5.37292 1.66682 5 1.29314 5 0.833008C5.00018 0.373029 5.37303 0.000175758 5.83301 0H9.16699Z" fill="var(--fill-0, #FAFAFA)"/>
<path d="M7.5 3.33301C11.642 3.33301 14.9998 6.69102 15 10.833C15 14.9751 11.6421 18.333 7.5 18.333C3.35786 18.333 0 14.9751 0 10.833C0.000176202 6.69102 3.35797 3.33301 7.5 3.33301ZM7.5 5C4.27845 5 1.66717 7.6115 1.66699 10.833C1.66699 14.0547 4.27834 16.667 7.5 16.667C10.7217 16.667 13.333 14.0547 13.333 10.833C13.3328 7.6115 10.7216 5 7.5 5ZM9.41113 7.74414C9.73653 7.41892 10.2635 7.41892 10.5889 7.74414C10.9143 8.06958 10.9143 8.59741 10.5889 8.92285L8.08887 11.4229C7.76351 11.7479 7.23649 11.7479 6.91113 11.4229C6.5857 11.0974 6.5857 10.5696 6.91113 10.2441L9.41113 7.74414ZM9.16699 0C9.62697 0.000175952 9.99982 0.373029 10 0.833008C10 1.29314 9.62708 1.66682 9.16699 1.66699H5.83301C5.37292 1.66682 5 1.29314 5 0.833008C5.00018 0.373029 5.37303 0.000175758 5.83301 0H9.16699Z" stroke="var(--stroke-0, #ED3237)"/>
</g>
</svg>
