<svg preserveAspectRatio="none" width="100%" height="100%" overflow="visible" style="display: block;" viewBox="0 0 18.2818 18.2735" fill="none" xmlns="http://www.w3.org/2000/svg">
<g id="vector">
<path fill-rule="evenodd" clip-rule="evenodd" d="M5.5582 1.86818C5.40488 1.73632 5.20884 1.66472 5.00663 1.66671C5.0039 1.66673 5.00116 1.66675 4.99843 1.66675H2.49888C2.3833 1.6669 2.26902 1.6911 2.1633 1.7378C2.05747 1.78454 1.96253 1.85281 1.88453 1.93826C1.80654 2.0237 1.74718 2.12445 1.71026 2.23409C1.67391 2.342 1.66008 2.45619 1.66957 2.56961C1.93019 5.01257 2.76202 7.35997 4.09783 9.422C4.09915 9.42404 4.10047 9.42609 4.10178 9.42815C5.31561 11.3384 6.93514 12.9579 8.84537 14.1717L8.84936 14.1743L8.85185 14.1759C10.9042 15.5069 13.2398 16.3384 15.6714 16.604C15.7849 16.6134 15.8992 16.5994 16.0071 16.5629C16.117 16.5257 16.218 16.466 16.3035 16.3876C16.389 16.3091 16.4572 16.2137 16.5036 16.1074C16.5501 16.001 16.5739 15.8862 16.5734 15.7701L16.5734 15.7667V13.2667C16.5734 13.2599 16.5735 13.253 16.5737 13.2461C16.5788 13.0417 16.5085 12.8427 16.3764 12.6867C16.2449 12.5315 16.0613 12.4298 15.86 12.4007C14.9992 12.2868 14.154 12.0761 13.3404 11.7725L13.3385 11.7718C13.1894 11.7157 13.0273 11.7036 12.8715 11.7368C12.7163 11.7699 12.5738 11.8466 12.4607 11.9579L12.4594 11.9593L11.4044 13.0143C11.1391 13.2796 10.7293 13.3349 10.4032 13.1495C8.1865 11.8891 6.35113 10.0537 5.09069 7.83699C4.90526 7.51089 4.96058 7.10109 5.22584 6.83582L6.28227 5.7794C6.39355 5.66633 6.47025 5.52384 6.50335 5.36866C6.53658 5.21285 6.52445 5.05077 6.46839 4.90163L6.46768 4.89975C6.16412 4.08624 5.9534 3.24106 5.83952 2.38027C5.81063 2.18125 5.71073 1.99935 5.5582 1.86818ZM4.99475 8.08182e-05C5.59978 -0.00478203 6.18611 0.209951 6.64493 0.604537C7.10489 1.0001 7.40533 1.54943 7.49023 2.15012C7.49059 2.15267 7.49094 2.15523 7.49128 2.15778C7.58854 2.89528 7.76891 3.61942 8.02892 4.31638C8.19672 4.76346 8.23297 5.24925 8.13336 5.7163C8.03366 6.18375 7.80205 6.61284 7.46597 6.9527L7.46269 6.956L6.86511 7.55358C7.84499 9.09079 9.14939 10.3952 10.6866 11.3751L11.2842 10.7775L11.2875 10.7742C11.6273 10.4381 12.0564 10.2065 12.5239 10.1068C12.991 10.0072 13.4768 10.0435 13.924 10.2113C14.6209 10.4713 15.345 10.6516 16.0824 10.7489C16.0849 10.7492 16.0874 10.7496 16.0898 10.7499C16.697 10.8356 17.2516 11.1414 17.648 11.6093C18.042 12.0743 18.2524 12.667 18.2401 13.276V15.7656C18.2412 16.113 18.1699 16.4568 18.0307 16.775C17.8913 17.094 17.6867 17.3804 17.4302 17.6157C17.1737 17.851 16.8708 18.0302 16.541 18.1417C16.2112 18.2533 15.8618 18.2947 15.5151 18.2634C15.5101 18.2629 15.5051 18.2624 15.5001 18.2619C12.8075 17.9693 10.221 17.0495 7.94823 15.5764C5.83394 14.2322 4.04119 12.4394 2.69704 10.3251C1.21869 8.04198 0.298652 5.44285 0.0114234 2.73808C0.0109636 2.73375 0.0105377 2.72942 0.0101459 2.72508C-0.021091 2.37941 0.0199896 2.03103 0.130771 1.70211C0.241553 1.37319 0.419609 1.07094 0.653603 0.814608C0.887597 0.558273 1.1724 0.353468 1.48988 0.213234C1.80737 0.0729993 2.15057 0.000407992 2.49765 8.11997e-05L4.99475 8.08182e-05Z" fill="var(--fill-0, #FAFAFA)"/>
<path fill-rule="evenodd" clip-rule="evenodd" d="M9.95298 0.746077C10.0012 0.288374 10.4113 -0.043572 10.869 0.00465558C12.7563 0.203516 14.5192 1.04058 15.8661 2.37742C17.2131 3.71425 18.0634 5.47078 18.2765 7.35651C18.3281 7.81383 17.9993 8.22646 17.542 8.27813C17.0846 8.3298 16.672 8.00096 16.6203 7.54363C16.4499 6.03504 15.7696 4.62982 14.6921 3.56035C13.6145 2.49089 12.2042 1.82123 10.6944 1.66215C10.2367 1.61392 9.90475 1.20378 9.95298 0.746077Z" fill="var(--fill-0, #FAFAFA)"/>
<path fill-rule="evenodd" clip-rule="evenodd" d="M9.96423 4.0054C10.0533 3.55386 10.4915 3.25999 10.943 3.34903C11.9265 3.54297 12.8291 4.02806 13.5334 4.74134C14.2378 5.45462 14.7115 6.36316 14.893 7.34903C14.9764 7.80166 14.677 8.23615 14.2244 8.31951C13.7718 8.40286 13.3373 8.1035 13.2539 7.65088C13.1329 6.99363 12.8171 6.38794 12.3475 5.91242C11.8779 5.4369 11.2763 5.1135 10.6206 4.98421C10.1691 4.89517 9.87519 4.45694 9.96423 4.0054Z" fill="var(--fill-0, #FAFAFA)"/>
</g>
</svg>
